<svg width="121" height="38" viewBox="0 0 121 38" fill="none" xmlns="http://www.w3.org/2000/svg">
<path d="M62.8268 10.6697L62.8562 11.0654L62.9939 12.9168C64.8048 11.1028 67.1382 10.199 69.9616 10.199C71.6568 10.199 73.1174 10.5337 74.3229 11.2267C75.342 11.8126 76.1598 12.6438 76.7779 13.7078C78.625 11.369 81.1688 10.199 84.3659 10.199C87.2115 10.199 89.4056 11.0347 90.8599 12.776M62.8268 10.6697L90.5324 13.0506M62.8268 10.6697H62.43H56.0516H55.6242V11.0971V36.5635V36.9909H56.0516H62.8536H63.281V36.5635V18.6682M62.8268 10.6697L63.281 18.6682M90.8599 12.776C90.8601 12.7762 90.8603 12.7765 90.8605 12.7767L90.5324 13.0506M90.8599 12.776C90.8596 12.7757 90.8594 12.7754 90.8592 12.7751L90.5324 13.0506M90.8599 12.776C92.301 14.4858 92.9839 17.0195 92.9839 20.2998V36.5635V36.9909H92.5566H85.731H85.3036V36.5635V20.3234C85.3036 18.9192 85.0259 17.9921 84.5592 17.4476L84.556 17.4439C84.1116 16.913 83.2735 16.5848 81.8946 16.5848C80.9445 16.5848 80.1702 16.8104 79.548 17.239C78.9424 17.6562 78.4505 18.2868 78.0855 19.16M90.5324 13.0506C91.8819 14.6511 92.5566 17.0675 92.5566 20.2998V36.1361V36.5635H92.1292H86.1584H85.731V36.1361V20.3234C85.731 18.8798 85.4486 17.8285 84.8837 17.1695C84.3188 16.4948 83.3225 16.1574 81.8946 16.1574C79.8548 16.1574 78.4426 17.1303 77.658 19.076M78.0855 19.16L78.0854 19.0754L77.658 19.076M78.0855 19.16L78.1089 36.5629L78.1095 36.9909H77.6816H70.8795H70.4522V36.5635V20.3469C70.4522 18.9106 70.1663 17.9714 69.688 17.4285C69.2261 16.9041 68.3882 16.5848 67.0431 16.5848C66.1378 16.5848 65.3825 16.7721 64.7607 17.1284C64.1666 17.4689 63.672 17.9764 63.281 18.6682M78.0855 19.16C78.075 19.185 78.0647 19.2103 78.0544 19.2358L77.658 19.076M77.658 19.076L63.281 18.6682M97.9861 16.7464C96.9651 18.8212 96.4599 21.1699 96.4599 23.7832V24.4422C96.4599 28.3495 97.6615 31.5186 100.095 33.9032L100.096 33.9042C102.541 36.2835 105.697 37.4616 109.526 37.4616C111.7 37.4616 113.691 37.0508 115.495 36.2222L115.498 36.2209C117.3 35.3764 118.741 34.2006 119.808 32.6912L120.004 32.4135L119.777 32.1599L116.435 28.4177L116.094 28.0351L115.779 28.4401C114.393 30.2242 112.476 31.1229 109.973 31.1229C108.37 31.1229 107.073 30.651 106.048 29.7275C105.14 28.8969 104.549 27.8184 104.286 26.4701H120H120.427V26.0427V23.2654C120.427 19.1649 119.406 15.9335 117.303 13.6337C115.215 11.3324 112.354 10.199 108.773 10.199C106.381 10.199 104.232 10.7656 102.34 11.9075C100.459 13.0356 99.0082 14.6536 97.9861 16.7464ZM97.9861 16.7464C97.9863 16.7461 97.9864 16.7457 97.9866 16.7454L98.3699 16.9341L97.986 16.7466C97.986 16.7465 97.9861 16.7465 97.9861 16.7464ZM21.6179 22.9867H22.0453V22.5593V16.8635V16.4361H21.6179H8.4883V8.44123H23.3125H23.7399V8.01384V2.2945V1.86712H23.3125H1H0.572615V2.2945V36.5635V36.9909H1H8.06092H8.4883V36.5635V22.9867H21.6179ZM34.1392 36.9909H34.5666V36.5635V11.0971V10.6697H34.1392H27.3137H26.8863V11.0971V36.5635V36.9909H27.3137H34.1392ZM27.6305 1.67938L27.6305 1.67936L27.627 1.68279C26.8628 2.4292 26.4862 3.3823 26.4862 4.50692C26.4862 5.64829 26.8715 6.61102 27.6541 7.358L27.654 7.35802L27.6576 7.36129C28.4572 8.10759 29.4942 8.46477 30.7265 8.46477C31.9575 8.46477 32.9885 8.10817 33.7736 7.35964C34.5719 6.61372 34.9667 5.65057 34.9667 4.50692C34.9667 3.37915 34.58 2.42501 33.7989 1.67938C33.0124 0.928699 31.9723 0.572615 30.7265 0.572615C29.4667 0.572615 28.418 0.927687 27.6305 1.67938ZM48.3354 4.83643V4.40905H47.908H41.106H40.6786V4.83643V10.6697H37.3873H36.9599V11.0971V16.0868V16.5142H37.3873H40.6786V29.8085H40.6785L40.6787 29.8169C40.7271 32.2909 41.3775 34.2218 42.7 35.5315C44.0231 36.8419 45.9496 37.4616 48.4023 37.4616C49.8563 37.4616 51.2714 37.2515 52.6462 36.831L52.9485 36.7385V36.4223V31.2678V30.752L52.4417 30.8479C51.8933 30.9516 51.2539 31.0052 50.5206 31.0052C49.5256 31.0052 49.0016 30.7998 48.7695 30.5374C48.5129 30.2474 48.3354 29.7031 48.3354 28.7965V16.5142H52.2623H52.6896V16.0868V11.0971V10.6697H52.2623H48.3354V4.83643ZM77.2542 36.5635H77.6801L77.2542 36.5641V36.5635ZM77.6816 36.5635V36.1361H77.681L77.6816 36.5635ZM77.0006 14.1181C76.9039 14.2452 76.8092 14.3758 76.7166 14.5099C76.6468 14.3623 76.5737 14.2189 76.4972 14.0797L77.0006 14.1181ZM111.781 17.6746L111.784 17.6776C112.471 18.3927 112.858 19.4362 112.888 20.8693V20.9787H104.355C104.611 19.5829 105.091 18.5307 105.769 17.7887C106.528 16.9744 107.508 16.5613 108.75 16.5613C110.108 16.5613 111.097 16.9498 111.781 17.6746Z" fill="#ED06B6" stroke="#ED06B6" stroke-width="0.85477"/>
</svg>
