<svg width="317" height="100" viewBox="0 0 317 100" fill="none" xmlns="http://www.w3.org/2000/svg">
<path d="M56.8837 60.4611H58.0006V59.3441V44.4585V43.3415H56.8837H22.5703V22.4472H61.3125H62.4294V21.3303V6.38311V5.26616H61.3125H3H1.88305V6.38311V95.9432V97.0602H3H21.4533H22.5703V95.9432V60.4611H56.8837ZM89.6076 97.0602H90.7245V95.9432V29.3883V28.2713H89.6076H71.7694H70.6524V29.3883V95.9432V97.0602H71.7694H89.6076ZM72.5974 4.77552L72.5974 4.77546L72.5882 4.78443C70.591 6.73514 69.6067 9.22601 69.6067 12.1652C69.6067 15.148 70.6138 17.6641 72.659 19.6163L72.6589 19.6163L72.6681 19.6249C74.7578 21.5753 77.4679 22.5088 80.6885 22.5088C83.9058 22.5088 86.6 21.5769 88.6519 19.6207C90.7382 17.6713 91.7702 15.1541 91.7702 12.1652C91.7702 9.21779 90.7595 6.72419 88.718 4.77552C86.6627 2.81366 83.9445 1.88305 80.6885 1.88305C77.3962 1.88305 74.6555 2.81101 72.5974 4.77552ZM126.709 13.0263V11.9094H125.592H107.815H106.698V13.0263V28.2713H98.0961H96.9792V29.3883V42.4286V43.5455H98.0961H106.698V78.2896V78.3005L106.698 78.3114C106.824 84.7771 108.524 89.8234 111.981 93.2461C115.439 96.6707 120.473 98.2904 126.883 98.2904C130.683 98.2904 134.382 97.7413 137.974 96.6423L138.765 96.4006V95.5742V82.1032V80.7552L137.44 81.0058C136.007 81.2769 134.336 81.4169 132.419 81.4169C129.819 81.4169 128.45 80.8802 127.843 80.1945C127.172 79.4365 126.709 78.014 126.709 75.6446V43.5455H136.971H138.088V42.4286V29.3883V28.2713H136.971H126.709V13.0263ZM164.658 29.3054L164.581 28.2713H163.544H146.874H145.757V29.3883V95.9432V97.0602H146.874H164.651H165.768V95.9432V49.175C166.79 47.3669 168.082 46.0406 169.635 45.1508C171.26 44.2196 173.234 43.7301 175.6 43.7301C179.115 43.7301 181.305 44.5646 182.512 45.9349C183.762 47.3538 184.509 49.8083 184.509 53.5621V95.9432V97.0602H185.626H203.403H204.522L204.52 95.9417L204.459 50.4601C205.413 48.1781 206.698 46.5301 208.281 45.4398C209.907 44.3197 211.931 43.7301 214.414 43.7301C218.017 43.7301 220.208 44.5877 221.369 45.9752L221.377 45.985C222.597 47.408 223.323 49.8308 223.323 53.5006V95.9432V97.0602H224.44H242.278H243.395V95.9432V53.4391C243.395 44.866 241.61 38.2442 237.844 33.7757C234.043 29.2251 228.309 27.0411 220.872 27.0411C212.517 27.0411 205.869 30.0988 201.041 36.2111C199.426 33.4304 197.289 31.2582 194.625 29.727C191.475 27.9157 187.658 27.0411 183.227 27.0411C175.849 27.0411 169.75 29.403 165.018 34.144L164.658 29.3054ZM261.98 88.9906L261.982 88.9932C268.371 95.2116 276.62 98.2904 286.628 98.2904C292.307 98.2904 297.513 97.2167 302.226 95.0514L302.233 95.0479C306.945 92.8407 310.71 89.768 313.497 85.8233L314.01 85.0976L313.418 84.4348L304.684 74.6545L303.791 73.6548L302.969 74.7133C299.346 79.3758 294.335 81.7244 287.796 81.7244C283.607 81.7244 280.215 80.4911 277.536 78.0775C275.163 75.9068 273.62 73.0884 272.932 69.5647H314H315.117V68.4478V61.1895C315.117 50.4739 312.447 42.0295 306.954 36.0191C301.497 30.0036 294.018 27.0411 284.659 27.0411C278.407 27.0411 272.792 28.5218 267.846 31.506C262.932 34.4542 259.14 38.682 256.469 44.1506C253.8 49.5734 252.479 55.7123 252.479 62.5427V64.265C252.479 74.4764 255.62 82.7587 261.98 88.9906ZM292.52 46.5782L292.527 46.5859C294.324 48.4547 295.334 51.182 295.414 54.927V55.2132H273.114C273.782 51.5658 275.037 48.816 276.807 46.8768C278.79 44.7484 281.353 43.6686 284.598 43.6686C288.149 43.6686 290.733 44.6841 292.52 46.5782Z" stroke="#ED06B6" stroke-width="2.23389"/>
</svg>
